<mxfile host="app.diagrams.net" modified="2021-04-22T23:32:25.261Z" agent="5.0 (Windows NT 10.0; Win64; x64) AppleWebKit/537.36 (KHTML, like Gecko) Chrome/90.0.4430.72 Safari/537.36 Edg/90.0.818.42" etag="uLS_O47qnRHKOWcc3hvn" version="14.6.6" type="github">
  <diagram id="dBdLUqGyFicPJLa6Spzo" name="Page-1">
    <mxGraphModel dx="494" dy="1434" grid="1" gridSize="10" guides="1" tooltips="1" connect="1" arrows="1" fold="1" page="1" pageScale="1" pageWidth="827" pageHeight="1169" math="0" shadow="0">
      <root>
        <mxCell id="0" />
        <mxCell id="1" parent="0" />
        <mxCell id="ZyZBXTMYzQjOFUkBs5Aj-1" value="" style="whiteSpace=wrap;html=1;aspect=fixed;" vertex="1" parent="1">
          <mxGeometry x="80" y="-440" width="80" height="80" as="geometry" />
        </mxCell>
        <mxCell id="ZyZBXTMYzQjOFUkBs5Aj-2" value="" style="shape=cylinder3;whiteSpace=wrap;html=1;boundedLbl=1;backgroundOutline=1;size=15;" vertex="1" parent="1">
          <mxGeometry x="200" y="-380" width="60" height="80" as="geometry" />
        </mxCell>
        <mxCell id="ZyZBXTMYzQjOFUkBs5Aj-3" value="" style="shape=parallelogram;perimeter=parallelogramPerimeter;whiteSpace=wrap;html=1;fixedSize=1;" vertex="1" parent="1">
          <mxGeometry x="160" y="-440" width="120" height="60" as="geometry" />
        </mxCell>
        <mxCell id="ZyZBXTMYzQjOFUkBs5Aj-4" value="" style="ellipse;whiteSpace=wrap;html=1;" vertex="1" parent="1">
          <mxGeometry x="80" y="-350" width="120" height="80" as="geometry" />
        </mxCell>
      </root>
    </mxGraphModel>
  </diagram>
</mxfile>
